<svg version="1.1" id="bold" 
    xmlns="http://www.w3.org/2000/svg" 
    xmlns:xlink="http://www.w3.org/1999/xlink" x="0px" y="0px" viewBox="0 0 30 27" style="enable-background:new 0 0 30 27" xml:space="preserve">
    <desc>Created with Sketch.</desc>
    <g id="Page-1">
        <g id="B-1x">
            <g id="btn-bold" transform="translate(11.000000, 8.000000)">
                <path id="B" d="M4.08,4.65c0.615,0,1.094-0.087,1.436-0.262c0.537-0.275,0.806-0.769,0.806-1.483
				c0-0.719-0.286-1.203-0.857-1.453c-0.322-0.14-0.801-0.21-1.436-0.21h-2.6V4.65H4.08z M4.57,9.727
				c0.894,0,1.531-0.265,1.912-0.794C6.721,8.599,6.841,8.194,6.841,7.72c0-0.799-0.349-1.343-1.047-1.632
				C5.422,5.933,4.932,5.856,4.321,5.856H1.428v3.871H4.57z M0,0h4.622c1.26,0,2.156,0.384,2.688,1.153
				c0.313,0.454,0.469,0.978,0.469,1.572c0,0.694-0.193,1.263-0.579,1.707C7,4.668,6.711,4.882,6.335,5.077
				C6.887,5.292,7.3,5.534,7.573,5.803c0.483,0.479,0.725,1.141,0.725,1.984c0,0.709-0.217,1.35-0.652,1.924
				C6.997,10.571,5.964,11,4.548,11H0V0z"></path>
            </g>
        </g>
    </g>
</svg>