<svg version="1.1" id="ordered" 
    xmlns="http://www.w3.org/2000/svg" 
    xmlns:xlink="http://www.w3.org/1999/xlink" x="0px" y="0px" viewBox="0 0 30 27" style="enable-background:new 0 0 30 27" xml:space="preserve">
    <desc>Created with Sketch.</desc>
    <g id="Page-1">
        <g id="有序列表-1x">
            <g id="btn-ordered-list" transform="translate(8.130000, 7.500000)">
                <path id="Combined-Shape" d="M0.2,1.1V0.6c0.2,0,0.4,0,0.5,0c0.1,0,0.3-0.1,0.3-0.2c0.1-0.1,0.1-0.1,0.1-0.3
				c0-0.1,0-0.1,0-0.1h0.6v3.5H1V1.1H0.2z M0.2,6.8c0.1-0.2,0.3-0.5,0.7-0.7c0.3-0.2,0.5-0.4,0.6-0.5c0.1-0.2,0.2-0.3,0.2-0.5
				c0-0.1,0-0.3-0.1-0.4C1.5,4.6,1.4,4.6,1.3,4.6C1,4.6,0.9,4.7,0.8,4.8c0,0.1-0.1,0.2-0.1,0.4H0.1c0-0.3,0.1-0.5,0.2-0.7
				C0.4,4.2,0.7,4,1.2,4c0.4,0,0.7,0.1,0.9,0.3s0.3,0.5,0.3,0.8c0,0.3-0.1,0.5-0.2,0.7C2.1,6,1.9,6.1,1.7,6.3L1.4,6.5
				C1.2,6.6,1.1,6.7,1.1,6.7S0.9,6.9,0.9,6.9h1.5v0.6H0C0,7.3,0.1,7.1,0.2,6.8z M0.7,10.5c0,0.1,0,0.3,0.1,0.4
				C0.8,11,1,11.1,1.2,11.1c0.1,0,0.3,0,0.4-0.1s0.2-0.2,0.2-0.4c0-0.2-0.1-0.4-0.3-0.5C1.3,10,1.2,10,0.9,10V9.5
				c0.2,0,0.4,0,0.5-0.1C1.6,9.4,1.6,9.2,1.6,9c0-0.1,0-0.2-0.1-0.3S1.3,8.5,1.2,8.5C1,8.5,0.9,8.6,0.8,8.7S0.7,8.9,0.7,9.1H0.1
				c0-0.2,0-0.3,0.1-0.5c0.1-0.1,0.1-0.3,0.3-0.4C0.5,8.2,0.6,8.1,0.7,8S1,8,1.2,8C1.5,8,1.8,8.1,2,8.2s0.3,0.4,0.3,0.7
				c0,0.2-0.1,0.4-0.2,0.5C2.1,9.6,2,9.6,1.9,9.7c0.1,0,0.2,0.1,0.3,0.2c0.2,0.2,0.3,0.4,0.3,0.7c0,0.3-0.1,0.6-0.3,0.8
				s-0.5,0.3-0.9,0.3c-0.5,0-0.8-0.2-1-0.5C0.1,11,0,10.7,0,10.5H0.7z M4.9,1.5h8v1h-8V1.5z M4.9,5.5h8v1h-8V5.5z M4.9,9.5h8v1h-8
				V9.5z"></path>
            </g>
        </g>
    </g>
</svg>