<svg version="1.1" id="strikethrough" 
    xmlns="http://www.w3.org/2000/svg" 
    xmlns:xlink="http://www.w3.org/1999/xlink" x="0px" y="0px" viewBox="0 0 30 27" style="enable-background:new 0 0 30 27" xml:space="preserve">
    <desc>Created with Sketch.</desc>
    <g id="Page-1">
        <g id="s-1x">
            <g id="btn-strike" transform="translate(8.500000, 8.000000)">
                <path id="Combined-Shape" d="M3.158,5H0v1h6.083l0.78,0.171c0.791,0.175,1.372,0.381,1.743,0.618
				C8.973,7.03,9.156,7.435,9.156,8.003c0,0.757-0.435,1.283-1.304,1.577C7.403,9.731,6.905,9.807,6.358,9.807
				c-1.221,0-2.073-0.346-2.556-1.037C3.548,8.401,3.404,7.92,3.37,7.329H2c-0.015,1.127,0.356,2.019,1.113,2.677
				C3.871,10.669,4.918,11,6.256,11c1.147,0,2.155-0.249,3.021-0.746c0.867-0.497,1.3-1.323,1.3-2.478
				c0-0.727-0.21-1.319-0.63-1.776H13V5H7.902C7.89,4.997,7.879,4.995,7.867,4.992L6.358,4.658C5.343,4.431,4.691,4.242,4.403,4.09
				C3.963,3.854,3.744,3.48,3.744,2.968c0-0.464,0.188-0.871,0.564-1.221s0.994-0.526,1.853-0.526c1.064,0,1.819,0.272,2.263,0.817
				c0.239,0.298,0.396,0.727,0.469,1.285h1.37c0-1.16-0.394-2.004-1.183-2.532C8.291,0.264,7.332,0,6.205,0
				C4.979,0,4.032,0.301,3.363,0.902S2.359,2.272,2.359,3.21C2.359,3.974,2.625,4.571,3.158,5z"></path>
            </g>
        </g>
    </g>
</svg>