<svg version="1.1" id="unordered" 
    xmlns="http://www.w3.org/2000/svg" 
    xmlns:xlink="http://www.w3.org/1999/xlink" x="0px" y="0px" viewBox="0 0 30 27" style="enable-background:new 0 0 30 27" xml:space="preserve">
    <desc>Created with Sketch.</desc>
    <g id="Page-1">
        <g id="无序列表-1x">
            <g id="btn-list" transform="translate(7.500000, 8.000000)">
                <path id="Combined-Shape" d="M1,0h1c0.3,0,0.5,0.2,0.5,0.5V2H1C0.7,2,0.5,1.8,0.5,1.5v-1l0,0C0.5,0.2,0.7,0,1,0L1,0z
				 M1,4h1c0.3,0,0.5,0.2,0.5,0.5V6H1C0.7,6,0.5,5.8,0.5,5.5v-1C0.5,4.2,0.7,4,1,4L1,4z M1,8h1c0.3,0,0.5,0.2,0.5,0.5V10H1
				c-0.3,0-0.5-0.2-0.5-0.5v-1C0.5,8.2,0.7,8,1,8L1,8z M4.5,1h9v1h-9V1z M4.5,5h9v1h-9V5z M4.5,9h9v1h-9V9z"></path>
            </g>
        </g>
    </g>
</svg>